<svg width="171" height="38" viewBox="0 0 171 38" fill="none" xmlns="http://www.w3.org/2000/svg">
<path fill-rule="evenodd" clip-rule="evenodd" d="M56.9874 7.17273L56.9923 7.17604L45.3864 18.7837L40.1958 23.9726C40.0665 24.0721 39.9505 24.1881 39.8494 24.319L38.7158 25.4542L32.7662 31.4022L31.4204 32.7479C30.7294 33.3727 29.9935 33.9462 29.2163 34.4616C29.2163 34.4632 29.2146 34.4632 29.2146 34.4632C28.6544 34.8361 28.076 35.1775 27.4761 35.4891C27.4761 35.4907 27.4745 35.4907 27.4745 35.4907C25.1178 36.7171 22.4678 37.4579 19.657 37.5822H17.9616C16.5762 37.5209 15.2304 37.3104 13.9378 36.9641C12.6103 36.6094 11.3425 36.1122 10.1476 35.4924C4.12332 32.3618 0.00662914 26.0674 0 18.8102V18.7919C0 11.7916 3.82335 5.68448 9.49624 2.44615C10.8618 1.66391 12.3385 1.05072 13.8914 0.631425C15.1973 0.278424 16.5596 0.0613195 17.9616 0H19.657C22.4678 0.125954 25.1178 0.86676 27.4745 2.09315C28.076 2.40472 28.6544 2.74778 29.2146 3.11901C30.0681 3.6858 30.8702 4.32054 31.6177 5.0166L32.5839 5.9828L36.1222 9.51944L35.5106 10.1293L32.7214 12.9169L29.4516 16.19L24.9024 11.6408C24.498 11.2977 24.0621 10.9878 23.5997 10.716C23.6014 10.6945 23.6014 10.6746 23.6014 10.6547V10.6497C23.5832 10.6597 23.5633 10.6713 23.545 10.6829C22.1579 9.87576 20.5487 9.41503 18.8284 9.41503C17.1479 9.41503 15.5702 9.85587 14.2062 10.6282L14.1499 10.6597C11.3458 12.2738 9.45481 15.2884 9.43326 18.7489C9.43326 18.7704 9.43326 18.7903 9.43326 18.8102V18.8334C9.44155 22.3087 11.3375 25.3415 14.1499 26.959C14.1681 26.9706 14.1864 26.9822 14.2062 26.9922C15.2122 27.5606 16.3325 27.9501 17.5241 28.1158C17.95 28.1755 18.3859 28.2053 18.8284 28.2053C20.5487 28.2053 22.1579 27.7446 23.545 26.9375C23.5633 26.9259 23.5832 26.916 23.6014 26.9044C24.1201 26.5978 24.6074 26.2431 25.0548 25.8453C25.3399 25.5934 25.61 25.3233 25.8636 25.0382L30.4294 20.4724L32.0817 18.8201L36.5398 14.362L36.984 13.9195L38.7523 12.1495L39.8627 11.0392C40.0151 10.9281 40.1477 10.7939 40.2587 10.6431L50.1859 0.715947L50.5306 0.369574C50.7825 0.177329 51.0825 0.046404 51.4106 0H51.9409C52.289 0.0497185 52.6072 0.19556 52.8674 0.407692L57.1117 4.652C57.3785 4.97682 57.5376 5.3928 57.5376 5.84358C57.5376 6.36231 57.3271 6.83298 56.9874 7.17273Z" fill="#1EC6C6"/>
<path fill-rule="evenodd" clip-rule="evenodd" d="M56.9502 32.9917L56.9552 32.995L53.1119 36.8383L52.7158 37.2344C52.4722 37.415 52.1805 37.5393 51.8657 37.5824H51.3353C51.0354 37.541 50.7586 37.4266 50.5216 37.2609L50.0625 36.8018L41.3452 28.0845L42.4556 26.9741C42.6081 26.8631 42.7406 26.7289 42.8517 26.578L48.0158 21.4139L56.8127 30.2108L57.0745 30.471C57.3413 30.7958 57.5004 31.2118 57.5004 31.6642C57.5004 32.1813 57.2899 32.652 56.9502 32.9917Z" fill="#1EC6C6"/>
<path d="M147.48 9.36551C147.48 9.48761 147.454 9.60305 147.409 9.70739C147.277 10.0026 146.979 10.2091 146.633 10.2091C146.532 10.2091 144.163 10.2091 144.105 10.2091C144.105 10.2091 144.094 10.2091 144.087 10.2091C143.62 10.2091 143.239 9.83171 143.239 9.36773C143.239 9.36773 143.239 6.9879 143.239 6.85914C143.239 6.5106 143.452 6.21312 143.756 6.08436C143.859 6.04218 143.971 6.01776 144.087 6.01776C144.217 6.01776 146.63 6.01776 146.63 6.01776C147.098 6.01776 147.478 6.39516 147.478 6.85914C147.48 6.85692 147.48 9.26783 147.48 9.36551Z" fill="black"/>
<path d="M103.351 13.4215C102.443 14.5359 101.749 15.8302 101.335 17.2421C100.577 16.5339 99.5525 16.0988 98.4251 16.0988C96.0785 16.0988 94.1749 17.988 94.1749 20.3168H94.1615C94.1615 20.3168 94.1615 27.7915 94.1615 27.9091C94.1615 28.3753 93.7812 28.7527 93.3115 28.7527H90.7614C90.2916 28.7527 89.9114 28.3753 89.9114 27.9091V12.7066C89.9114 12.2404 90.2916 11.863 90.7614 11.863H93.3115C93.7812 11.863 94.1615 12.2404 94.1615 12.7066C94.1615 12.8243 94.1391 13.0086 94.1615 12.9975C95.4142 12.2737 96.8704 11.863 98.4251 11.863C100.262 11.863 101.962 12.4402 103.351 13.4215Z" fill="black"/>
<path d="M85.668 6H83.1246C82.6571 6 82.2768 6.3774 82.2768 6.84138V12.9885C81.0264 12.2693 79.5769 11.8586 78.0267 11.8586C73.3381 11.8586 69.5376 15.6303 69.5376 20.2834C69.5376 24.9365 73.3381 28.7083 78.0267 28.7083C79.5746 28.7083 81.0264 28.2976 82.2768 27.5783C82.2992 27.565 82.3215 27.5539 82.3439 27.5406C82.3014 27.6405 82.2768 27.7515 82.2768 27.8669C82.2768 28.3309 82.6571 28.7083 83.1246 28.7083H85.668C86.1355 28.7083 86.5158 28.3309 86.5158 27.8669V6.83916C86.5158 6.37518 86.1355 6 85.668 6ZM78.0334 24.5014C75.6913 24.5014 73.7922 22.6166 73.7922 20.2923C73.7922 17.968 75.6913 16.0832 78.0334 16.0832C80.3754 16.0832 82.2746 17.968 82.2746 20.2923C82.2746 22.6166 80.3754 24.5014 78.0334 24.5014Z" fill="black"/>
<path d="M119.886 15.7257C118.376 13.3992 115.741 11.8585 112.743 11.8585C111.043 11.8585 109.46 12.3536 108.133 13.2083C107.469 13.6345 106.869 14.1518 106.353 14.7401C105.046 16.2208 104.254 18.1611 104.254 20.2834C104.254 22.4057 105.046 24.346 106.353 25.8267C106.876 26.4217 107.482 26.9411 108.153 27.3696C109.478 28.2176 111.055 28.7083 112.746 28.7083C115.734 28.7083 118.363 27.1765 119.875 24.8588C120.736 23.5401 121.235 21.9706 121.235 20.2834V20.2612C121.23 18.5895 120.736 17.0333 119.886 15.7257ZM116.734 21.7441C116.139 23.3536 114.58 24.5014 112.752 24.5014C112.242 24.5014 111.753 24.4126 111.298 24.2483C109.672 23.66 108.511 22.1104 108.511 20.2923C108.511 18.4785 109.668 16.9312 111.289 16.3407C111.746 16.1742 112.238 16.0832 112.752 16.0832C114.584 16.0832 116.144 17.2353 116.739 18.8493C116.904 19.2999 116.994 19.7839 116.994 20.2923C116.994 20.8029 116.902 21.2913 116.734 21.7441Z" fill="black"/>
<path d="M139.909 26.0688C139.909 26.3019 139.815 26.5128 139.66 26.6637L139.662 26.6659L137.929 28.3864L137.75 28.564C137.609 28.6662 137.434 28.7283 137.247 28.7283C137.065 28.7283 136.898 28.6728 136.761 28.5774L132.144 23.9953C132.084 23.9087 132.008 23.8332 131.921 23.7733C131.784 23.6823 131.621 23.6268 131.444 23.6268C131.209 23.6268 130.999 23.72 130.845 23.8732L126.27 28.4131L126.138 28.5441C125.993 28.6595 125.809 28.7283 125.608 28.7283C125.395 28.7283 125.201 28.6506 125.051 28.5219L124.968 28.4397L123.253 26.737L123.17 26.6548C123.04 26.5061 122.962 26.313 122.962 26.1021C122.962 25.869 123.056 25.6603 123.21 25.5071L127.782 20.9694C127.831 20.9317 127.876 20.8873 127.914 20.8385C128.031 20.6942 128.1 20.5121 128.1 20.3123C128.1 20.1369 128.046 19.9749 127.952 19.8395C127.892 19.7529 127.816 19.6774 127.729 19.6175L123.25 15.173L123.17 15.0931C123.04 14.9444 122.959 14.7512 122.959 14.5403C122.959 14.3072 123.053 14.0986 123.208 13.9454L124.932 12.2338L125.129 12.0384C125.268 11.9407 125.438 11.8808 125.621 11.8808C125.798 11.8808 125.961 11.9341 126.098 12.0273L126.322 12.2493L130.739 16.6338C130.798 16.7182 130.871 16.7914 130.956 16.8491C131.093 16.9424 131.258 16.9979 131.437 16.9979C131.639 16.9979 131.822 16.9291 131.967 16.8136C132.017 16.7737 132.061 16.7315 132.099 16.6826L136.602 12.2138L136.761 12.0562C136.904 11.9474 137.083 11.883 137.276 11.883C137.479 11.883 137.667 11.9541 137.813 12.0739L137.931 12.1916L139.611 13.8588L139.73 13.9765C139.85 14.1208 139.922 14.3072 139.922 14.5093C139.922 14.7424 139.828 14.9533 139.674 15.1042L139.676 15.1064L135.028 19.7196C134.873 19.8728 134.779 20.0814 134.779 20.3145C134.779 20.4921 134.835 20.6564 134.929 20.7918C134.987 20.8762 135.061 20.9495 135.146 21.0072L139.595 25.4227L139.714 25.5404C139.835 25.6803 139.909 25.8667 139.909 26.0688Z" fill="black"/>
<path d="M147.48 12.7155V27.8847C147.48 28.3486 147.1 28.726 146.633 28.726C146.633 28.726 144.241 28.726 144.089 28.726C143.622 28.726 143.241 28.3486 143.241 27.8847C143.241 27.7315 143.241 12.8686 143.241 12.7155C143.241 12.287 143.564 11.934 143.977 11.8807C144.029 11.883 146.633 11.8741 146.633 11.8741C147.102 11.8741 147.48 12.2515 147.48 12.7155Z" fill="black"/>
<path d="M165 26.2352C165 26.4528 164.917 26.6504 164.781 26.7991C164.712 26.8568 164.64 26.9123 164.568 26.9678C163.132 28.069 161.332 28.7261 159.379 28.7261C158.672 28.7261 157.987 28.6395 157.332 28.4797C155.806 28.1045 154.444 27.3208 153.37 26.253C152.299 25.1874 151.514 23.8399 151.138 22.3325C150.975 21.682 150.89 21.0005 150.89 20.3012C150.89 19.5819 150.979 18.8849 151.151 18.2211C151.532 16.7315 152.312 15.4017 153.373 14.3494C154.435 13.2927 155.78 12.5157 157.283 12.1361C157.954 11.9674 158.656 11.8763 159.379 11.8763C161.379 11.8763 163.217 12.5623 164.669 13.7123L164.66 13.7234C164.857 13.8766 164.984 14.1163 164.984 14.3849C164.984 14.5847 164.915 14.7668 164.799 14.9111L164.667 15.0421L163.029 16.6671L162.788 16.9068C162.654 16.9956 162.493 17.0467 162.32 17.0467C162.191 17.0467 162.068 17.0178 161.958 16.9668C161.88 16.9068 161.799 16.8513 161.716 16.7958C161.047 16.3585 160.247 16.1032 159.385 16.1032C158.211 16.1032 157.151 16.5761 156.381 17.3397C155.616 18.1012 155.144 19.1513 155.144 20.3123C155.144 21.4667 155.612 22.5123 156.372 23.2738C157.142 24.0441 158.207 24.5214 159.385 24.5214C160.247 24.5214 161.047 24.2661 161.716 23.8288C161.799 23.7755 161.88 23.7178 161.958 23.6578C162.068 23.6068 162.191 23.5779 162.32 23.5779C162.531 23.5779 162.721 23.6534 162.868 23.7777L162.965 23.8732L164.7 25.5959L164.797 25.6914C164.924 25.8379 165 26.0266 165 26.2352Z" fill="black"/>
</svg>
